<svg xmlns="http://www.w3.org/2000/svg" xmlns:xlink="http://www.w3.org/1999/xlink" width="32" zoomAndPan="magnify"
     viewBox="0 0 420 454.499987" height="32" preserveAspectRatio="xMidYMid meet" version="1.0">
    <defs>
        <clipPath id="6df24da743">
            <path d="M 7 6 L 318 6 L 318 388 L 7 388 Z M 7 6 " clip-rule="nonzero"/>
        </clipPath>
        <clipPath id="c81141446e">
            <path d="M 0.230469 73.542969 L 214.125 0 L 324.4375 320.839844 L 110.542969 394.382812 Z M 0.230469 73.542969 "
                  clip-rule="nonzero"/>
        </clipPath>
        <clipPath id="ed39e1d1bf">
            <path d="M 24.320312 65.257812 L 190.035156 8.28125 C 196.425781 6.085938 203.425781 6.515625 209.496094 9.480469 C 215.566406 12.445312 220.210938 17.699219 222.40625 24.085938 L 316.078125 296.523438 C 318.273438 302.910156 317.839844 309.910156 314.878906 315.980469 C 311.914062 322.050781 306.660156 326.695312 300.269531 328.890625 L 134.554688 385.871094 C 128.164062 388.066406 121.164062 387.632812 115.09375 384.671875 C 109.023438 381.707031 104.378906 376.453125 102.183594 370.0625 L 8.515625 97.628906 C 6.316406 91.242188 6.75 84.242188 9.710938 78.171875 C 12.675781 72.101562 17.929688 67.457031 24.320312 65.257812 Z M 24.320312 65.257812 "
                  clip-rule="nonzero"/>
        </clipPath>
        <clipPath id="2aef8ec81a">
            <path d="M 104 51 L 335 51 L 335 394 L 104 394 Z M 104 51 " clip-rule="nonzero"/>
        </clipPath>
        <clipPath id="33ef856f09">
            <path d="M 110.007812 50.730469 L 335.460938 54.839844 L 329.273438 393.898438 L 103.824219 389.785156 Z M 110.007812 50.730469 "
                  clip-rule="nonzero"/>
        </clipPath>
        <clipPath id="66b2f63f15">
            <path d="M 135.476562 51.191406 L 309.992188 54.375 C 316.746094 54.5 323.175781 57.300781 327.863281 62.164062 C 332.554688 67.027344 335.117188 73.554688 334.996094 80.308594 L 329.742188 368.347656 C 329.617188 375.101562 326.816406 381.53125 321.953125 386.222656 C 317.089844 390.910156 310.5625 393.476562 303.808594 393.351562 L 129.292969 390.167969 C 122.539062 390.046875 116.109375 387.242188 111.421875 382.378906 C 106.734375 377.515625 104.167969 370.992188 104.292969 364.234375 L 109.546875 76.195312 C 109.667969 69.441406 112.46875 63.011719 117.332031 58.324219 C 122.195312 53.636719 128.722656 51.070312 135.476562 51.191406 Z M 135.476562 51.191406 "
                  clip-rule="nonzero"/>
        </clipPath>
        <clipPath id="5b6a8ad568">
            <path d="M 103 66 L 413 66 L 413 447 L 103 447 Z M 103 66 " clip-rule="nonzero"/>
        </clipPath>
        <clipPath id="99bcf4b18b">
            <path d="M 205.214844 59.933594 L 419.429688 132.503906 L 310.574219 453.824219 L 96.359375 381.253906 Z M 205.214844 59.933594 "
                  clip-rule="nonzero"/>
        </clipPath>
        <clipPath id="c765dfcfd9">
            <path d="M 229.339844 68.105469 L 395.304688 124.332031 C 401.703125 126.5 406.976562 131.117188 409.96875 137.175781 C 412.960938 143.234375 413.425781 150.230469 411.257812 156.628906 L 318.820312 429.484375 C 316.652344 435.882812 312.03125 441.15625 305.976562 444.148438 C 299.917969 447.140625 292.921875 447.605469 286.523438 445.4375 L 120.558594 389.210938 C 114.160156 387.042969 108.886719 382.421875 105.894531 376.367188 C 102.902344 370.308594 102.4375 363.3125 104.605469 356.914062 L 197.042969 84.058594 C 199.210938 77.660156 203.832031 72.386719 209.886719 69.394531 C 215.945312 66.402344 222.941406 65.9375 229.339844 68.105469 Z M 229.339844 68.105469 "
                  clip-rule="nonzero"/>
        </clipPath>
    </defs>
    <g clip-path="url(#6df24da743)">
        <g clip-path="url(#c81141446e)">
            <g clip-path="url(#ed39e1d1bf)">
                <path fill="#d2e3fc"
                      d="M 0.230469 73.542969 L 214.125 0 L 324.4375 320.839844 L 110.542969 394.382812 Z M 0.230469 73.542969 "
                      fill-opacity="1" fill-rule="nonzero"/>
            </g>
        </g>
    </g>
    <g clip-path="url(#2aef8ec81a)">
        <g clip-path="url(#33ef856f09)">
            <g clip-path="url(#66b2f63f15)">
                <path fill="#feefc3"
                      d="M 110.007812 50.730469 L 335.460938 54.839844 L 329.273438 393.898438 L 103.824219 389.785156 Z M 110.007812 50.730469 "
                      fill-opacity="1" fill-rule="nonzero"/>
            </g>
        </g>
    </g>
    <g clip-path="url(#5b6a8ad568)">
        <g clip-path="url(#99bcf4b18b)">
            <g clip-path="url(#c765dfcfd9)">
                <path fill="#aad59e"
                      d="M 205.214844 59.933594 L 419.429688 132.503906 L 310.574219 453.824219 L 96.359375 381.253906 Z M 205.214844 59.933594 "
                      fill-opacity="1" fill-rule="nonzero"/>
            </g>
        </g>
    </g>
</svg>